<?xml version="1.0" encoding="UTF-8"?>
<svg width="222px" height="152px" viewBox="0 0 222 152" version="1.1" xmlns="http://www.w3.org/2000/svg" xmlns:xlink="http://www.w3.org/1999/xlink">
    <!-- Generator: Sketch 52.6 (67491) - http://www.bohemiancoding.com/sketch -->
    <title>diagram-direct</title>
    <desc>Created with Sketch.</desc>
    <g id="Welcome" stroke="none" stroke-width="1" fill="none" fill-rule="evenodd">
        <g id="Website" transform="translate(-868.000000, -1510.000000)">
            <g id="diagram-direct" transform="translate(868.000000, 1510.000000)">
                <path d="M99.9258,0.6528 C84.6248,0.6528 72.1758,13.1008 72.1758,28.4028 C72.1758,29.0458 72.1978,29.6868 72.2418,30.3278 C63.2408,32.2198 56.4258,40.2708 56.4258,49.7778 C56.4258,60.7368 65.3418,69.6528 76.3008,69.6528 L157.3008,69.6528 C165.7788,69.6528 172.6758,62.7558 172.6758,54.2778 C172.6758,48.1588 169.0698,42.7278 163.6388,40.2798 C162.9908,29.4858 154.0048,20.9028 143.0508,20.9028 C141.8258,20.9028 140.6138,21.0098 139.4208,21.2218 C137.4708,16.6248 132.8868,13.4028 127.6758,13.4028 C126.2998,13.4028 124.9528,13.6218 123.6728,14.0488 C118.6908,5.8108 109.7088,0.6528 99.9258,0.6528 M99.9258,4.0278 C109.8768,4.0278 118.4298,9.9938 122.2168,18.5418 C123.7548,17.4358 125.6368,16.7778 127.6758,16.7778 C132.5888,16.7778 136.6118,20.5578 137.0108,25.3678 C138.8918,24.6648 140.9258,24.2778 143.0508,24.2778 C152.5778,24.2778 160.3008,32.0018 160.3008,41.5278 C160.3008,41.9088 160.2838,42.2858 160.2598,42.6608 C165.4538,43.9798 169.3008,48.6738 169.3008,54.2778 C169.3008,60.9058 163.9288,66.2778 157.3008,66.2778 L76.3008,66.2778 C67.1888,66.2778 59.8008,58.8898 59.8008,49.7778 C59.8008,40.7528 67.0488,33.4238 76.0398,33.2848 C75.7198,31.7078 75.5508,30.0748 75.5508,28.4028 C75.5508,14.9408 86.4638,4.0278 99.9258,4.0278" id="Fill-56" fill="#B3B3B3"></path>
                <polyline id="Stroke-57" stroke="#34C6BE" stroke-width="3.375" points="163.1836 125.9028 145.6756 125.9028 83.4256 125.9028 65.9186 125.9028"></polyline>
                <polygon id="Fill-58" fill="#34C6BE" points="161.5586 120.3491 171.1756 125.9031 161.5586 131.4561"></polygon>
                <polygon id="Fill-59" fill="#34C6BE" points="67.5439 120.3491 57.9259 125.9031 67.5439 131.4561"></polygon>
                <path d="M32.3291,109.6401 C31.9681,109.2781 31.4681,109.0541 30.9171,109.0541 C30.3661,109.0541 29.8661,109.2781 29.5051,109.6401" id="Stroke-60" stroke="#0099E6" stroke-width="3.781"></path>
                <path d="M37.8613,104.1703 C36.0923,102.4023 33.6513,101.3073 30.9603,101.3073 C28.2673,101.3073 25.8263,102.4023 24.0573,104.1703" id="Stroke-61" stroke="#0099E6" stroke-width="3.781"></path>
                <path d="M43.4619,98.7641 C40.2619,95.6101 35.8429,93.6571 30.9699,93.6571 C26.0969,93.6571 21.6779,95.6101 18.4769,98.7641" id="Stroke-62" stroke="#0099E6" stroke-width="3.781"></path>
                <path d="M53.1338,116.0493 L4.4998,116.0493 C2.0188,116.0493 -0.0002,118.0683 -0.0002,120.5493 L-0.0002,132.7853 C-0.0002,135.2673 2.0188,137.2853 4.4998,137.2853 L53.1338,137.2853 C55.6148,137.2853 57.6338,135.2673 57.6338,132.7853 L57.6338,120.5493 C57.6338,118.0683 55.6148,116.0493 53.1338,116.0493 M53.1338,119.0493 C53.9628,119.0493 54.6338,119.7213 54.6338,120.5493 L54.6338,132.7853 C54.6338,133.6133 53.9628,134.2853 53.1338,134.2853 L4.4998,134.2853 C3.6718,134.2853 2.9998,133.6133 2.9998,132.7853 L2.9998,120.5493 C2.9998,119.7213 3.6718,119.0493 4.4998,119.0493 L53.1338,119.0493" id="Fill-63" fill="#0099E6"></path>
                <path d="M49.9688,126.6674 C49.9688,127.9014 48.9678,128.9024 47.7328,128.9024 C46.4978,128.9024 45.4968,127.9014 45.4968,126.6674 C45.4968,125.4334 46.4978,124.4324 47.7328,124.4324 C48.9678,124.4324 49.9688,125.4334 49.9688,126.6674" id="Fill-64" fill="#0099E6"></path>
                <path d="M43.0059,126.6674 C43.0059,127.9014 42.0049,128.9024 40.7709,128.9024 C39.5359,128.9024 38.5349,127.9014 38.5349,126.6674 C38.5349,125.4334 39.5359,124.4324 40.7709,124.4324 C42.0049,124.4324 43.0059,125.4334 43.0059,126.6674" id="Fill-65" fill="#0099E6"></path>
                <path d="M173.3965,115.1274 L173.3965,139.0334 L186.8435,139.0334 C187.1955,139.0334 187.4295,139.2384 187.5465,139.6484 C187.6645,140.2934 187.9865,140.8204 188.5135,141.2314 C189.0415,141.6414 189.6265,141.8464 190.2715,141.8464 L195.8965,141.8464 C196.5415,141.8464 197.1265,141.6414 197.6545,141.2314 C198.1815,140.8204 198.5035,140.2934 198.6215,139.6484 C198.7385,139.2384 198.9725,139.0334 199.3245,139.0334 L212.7715,139.0334 L212.7715,115.1274 C212.7715,114.3654 212.4935,113.7064 211.9365,113.1494 C211.3795,112.5934 210.7205,112.3144 209.9595,112.3144 L176.2095,112.3144 C175.4475,112.3144 174.7885,112.5934 174.2315,113.1494 C173.6745,113.7064 173.3965,114.3654 173.3965,115.1274 Z M218.3965,144.6584 L218.3965,141.8464 L201.2575,141.8464 C200.9645,142.6664 200.4525,143.3404 199.7195,143.8674 C198.9875,144.3954 198.1815,144.6584 197.3025,144.6584 L188.8655,144.6584 C187.9865,144.6584 187.1805,144.3954 186.4485,143.8674 C185.7155,143.3404 185.2035,142.6664 184.9105,141.8464 L167.7715,141.8464 L167.7715,144.6584 C167.7715,145.8304 168.1815,146.8264 169.0015,147.6474 C169.8225,148.4674 170.8185,148.8774 171.9905,148.8774 L214.1775,148.8774 C215.3495,148.8774 216.3455,148.4674 217.1665,147.6474 C217.9865,146.8264 218.3965,145.8304 218.3965,144.6584 Z M219.8025,139.0334 C220.2125,139.0334 220.5495,139.1654 220.8135,139.4294 C221.0775,139.6924 221.2095,140.0294 221.2095,140.4394 L221.2095,144.6584 C221.2095,146.5924 220.5205,148.2474 219.1435,149.6244 C217.7665,151.0014 216.1115,151.6904 214.1775,151.6904 L171.9905,151.6904 C170.0565,151.6904 168.4015,151.0014 167.0245,149.6244 C165.6475,148.2474 164.9585,146.5924 164.9585,144.6584 L164.9585,140.4394 C164.9585,140.0294 165.0905,139.6924 165.3545,139.4294 C165.6185,139.1654 165.9555,139.0334 166.3655,139.0334 L170.5835,139.0334 L170.5835,115.1274 C170.5835,113.6044 171.1405,112.2854 172.2535,111.1724 C173.3675,110.0594 174.6855,109.5024 176.2095,109.5024 L209.9595,109.5024 C211.4825,109.5024 212.8005,110.0594 213.9145,111.1724 C215.0275,112.2854 215.5845,113.6044 215.5845,115.1274 L215.5845,139.0334 L219.8025,139.0334 Z" id="Fill-66" fill="#0099E6"></path>
                <path d="M194.0322,133.0561 C193.7432,132.7671 193.3432,132.5871 192.9022,132.5871 C192.4622,132.5871 192.0612,132.7671 191.7722,133.0561" id="Stroke-67" stroke="#0099E6" stroke-width="3.025"></path>
                <path d="M198.458,128.6801 C197.043,127.2661 195.09,126.3901 192.937,126.3901 C190.782,126.3901 188.829,127.2661 187.415,128.6811" id="Stroke-68" stroke="#0099E6" stroke-width="3.025"></path>
                <path d="M202.9385,124.3559 C200.3775,121.8329 196.8425,120.2689 192.9445,120.2689 C189.0455,120.2689 185.5105,121.8329 182.9505,124.3559" id="Stroke-69" stroke="#0099E6" stroke-width="3.025"></path>
            </g>
        </g>
    </g>
</svg>