<?xml version="1.0" encoding="UTF-8"?>
<svg width="222px" height="152px" viewBox="0 0 222 152" version="1.1" xmlns="http://www.w3.org/2000/svg" xmlns:xlink="http://www.w3.org/1999/xlink">
    <!-- Generator: Sketch 52.6 (67491) - http://www.bohemiancoding.com/sketch -->
    <title>diagram-connect</title>
    <desc>Created with Sketch.</desc>
    <g id="Welcome" stroke="none" stroke-width="1" fill="none" fill-rule="evenodd">
        <g id="Website" transform="translate(-1050.000000, -947.000000)">
            <g id="diagram-connect" transform="translate(1050.000000, 947.000000)">
                <path d="M100.3008,0.1899 C84.9998,0.1899 72.5508,12.6379 72.5508,27.9399 C72.5508,28.5829 72.5728,29.2239 72.6168,29.8649 C63.6158,31.7569 56.8008,39.8079 56.8008,49.3149 C56.8008,60.2739 65.7168,69.1899 76.6758,69.1899 L157.6758,69.1899 C166.1538,69.1899 173.0508,62.2929 173.0508,53.8149 C173.0508,47.6959 169.4448,42.2649 164.0138,39.8169 C163.3658,29.0229 154.3798,20.4399 143.4258,20.4399 C142.2008,20.4399 140.9888,20.5469 139.7948,20.7589 C137.8448,16.1629 133.2608,12.9399 128.0508,12.9399 C126.6748,12.9399 125.3278,13.1589 124.0478,13.5849 C119.0658,5.3479 110.0838,0.1899 100.3008,0.1899 M100.3008,3.5649 C110.2518,3.5649 118.8048,9.5309 122.5918,18.0789 C124.1298,16.9729 126.0118,16.3149 128.0508,16.3149 C132.9638,16.3149 136.9868,20.0949 137.3858,24.9049 C139.2668,24.2019 141.3008,23.8149 143.4258,23.8149 C152.9528,23.8149 160.6758,31.5389 160.6758,41.0649 C160.6758,41.4459 160.6588,41.8229 160.6348,42.1979 C165.8288,43.5169 169.6758,48.2109 169.6758,53.8149 C169.6758,60.4429 164.3038,65.8149 157.6758,65.8149 L76.6758,65.8149 C67.5638,65.8149 60.1758,58.4279 60.1758,49.3149 C60.1758,40.2899 67.4238,32.9609 76.4148,32.8219 C76.0948,31.2449 75.9258,29.6119 75.9258,27.9399 C75.9258,14.4779 86.8388,3.5649 100.3008,3.5649" id="Fill-3" fill="#0099E6"></path>
                <polygon id="Fill-5" fill="#FFFFFF" points="97.056 72.565 100.547 72.565 100.547 62.065 97.056 62.065"></polygon>
                <polygon id="Fill-7" fill="#FFFFFF" points="135.306 72.565 138.797 72.565 138.797 62.065 135.306 62.065"></polygon>
                <path d="M173.3965,114.6645 L173.3965,138.5705 L186.8435,138.5705 C187.1955,138.5705 187.4295,138.7755 187.5465,139.1855 C187.6645,139.8305 187.9865,140.3575 188.5135,140.7685 C189.0415,141.1785 189.6265,141.3835 190.2715,141.3835 L195.8965,141.3835 C196.5415,141.3835 197.1265,141.1785 197.6545,140.7685 C198.1815,140.3575 198.5035,139.8305 198.6215,139.1855 C198.7385,138.7755 198.9725,138.5705 199.3245,138.5705 L212.7715,138.5705 L212.7715,114.6645 C212.7715,113.9025 212.4935,113.2435 211.9365,112.6865 C211.3795,112.1305 210.7205,111.8515 209.9595,111.8515 L176.2095,111.8515 C175.4475,111.8515 174.7885,112.1305 174.2315,112.6865 C173.6745,113.2435 173.3965,113.9025 173.3965,114.6645 Z M218.3965,144.1955 L218.3965,141.3835 L201.2575,141.3835 C200.9645,142.2035 200.4525,142.8775 199.7195,143.4045 C198.9875,143.9325 198.1815,144.1955 197.3025,144.1955 L188.8655,144.1955 C187.9865,144.1955 187.1805,143.9325 186.4485,143.4045 C185.7155,142.8775 185.2035,142.2035 184.9105,141.3835 L167.7715,141.3835 L167.7715,144.1955 C167.7715,145.3675 168.1815,146.3635 169.0015,147.1845 C169.8225,148.0045 170.8185,148.4145 171.9905,148.4145 L214.1775,148.4145 C215.3495,148.4145 216.3455,148.0045 217.1665,147.1845 C217.9865,146.3635 218.3965,145.3675 218.3965,144.1955 Z M219.8025,138.5705 C220.2125,138.5705 220.5495,138.7025 220.8135,138.9665 C221.0775,139.2295 221.2095,139.5665 221.2095,139.9765 L221.2095,144.1955 C221.2095,146.1295 220.5205,147.7845 219.1435,149.1615 C217.7665,150.5385 216.1115,151.2275 214.1775,151.2275 L171.9905,151.2275 C170.0565,151.2275 168.4015,150.5385 167.0245,149.1615 C165.6475,147.7845 164.9585,146.1295 164.9585,144.1955 L164.9585,139.9765 C164.9585,139.5665 165.0905,139.2295 165.3545,138.9665 C165.6185,138.7025 165.9555,138.5705 166.3655,138.5705 L170.5835,138.5705 L170.5835,114.6645 C170.5835,113.1415 171.1405,111.8225 172.2535,110.7095 C173.3675,109.5965 174.6855,109.0395 176.2095,109.0395 L209.9595,109.0395 C211.4825,109.0395 212.8005,109.5965 213.9145,110.7095 C215.0275,111.8225 215.5845,113.1415 215.5845,114.6645 L215.5845,138.5705 L219.8025,138.5705 Z" id="Fill-8" fill="#0099E6"></path>
                <path d="M95.8008,68.4399 L95.8008,52.6899 C95.8008,46.0629 101.1738,40.6899 107.8008,40.6899 L122.0508,40.6899 C128.6788,40.6899 134.0508,46.0629 134.0508,52.6899 L134.0508,68.4399" id="Stroke-9" stroke="#34C6BE" stroke-width="3.375"></path>
                <path d="M134.0508,68.4399 L134.0508,113.4399 C134.0508,120.0679 139.4238,125.4399 146.0508,125.4399 L163.5588,125.4399" id="Stroke-10" stroke="#34C6BE" stroke-width="3.375"></path>
                <polygon id="Fill-11" fill="#34C6BE" points="161.9336 130.9936 171.5506 125.4396 161.9336 119.8866"></polygon>
                <path d="M95.8008,68.4399 L95.8008,113.4399 C95.8008,120.0679 90.4288,125.4399 83.8008,125.4399 L66.2938,125.4399" id="Stroke-12" stroke="#34C6BE" stroke-width="3.375"></path>
                <polygon id="Fill-13" fill="#34C6BE" points="67.9189 119.8862 58.3009 125.4402 67.9189 130.9932"></polygon>
                <path d="M32.3291,108.6684 C31.9681,108.3064 31.4681,108.0824 30.9171,108.0824 C30.3661,108.0824 29.8661,108.3064 29.5051,108.6684" id="Stroke-36" stroke="#0099E6" stroke-width="3.781"></path>
                <path d="M37.8613,103.1987 C36.0923,101.4297 33.6513,100.3357 30.9603,100.3357 C28.2673,100.3357 25.8263,101.4297 24.0573,103.1987" id="Stroke-37" stroke="#0099E6" stroke-width="3.781"></path>
                <path d="M43.4619,97.7924 C40.2619,94.6384 35.8429,92.6844 30.9699,92.6844 C26.0969,92.6844 21.6779,94.6384 18.4769,97.7924" id="Stroke-38" stroke="#0099E6" stroke-width="3.781"></path>
                <path d="M53.1338,115.0776 L4.4998,115.0776 C2.0188,115.0776 -0.0002,117.0966 -0.0002,119.5776 L-0.0002,131.8126 C-0.0002,134.2946 2.0188,136.3126 4.4998,136.3126 L53.1338,136.3126 C55.6148,136.3126 57.6338,134.2946 57.6338,131.8126 L57.6338,119.5776 C57.6338,117.0966 55.6148,115.0776 53.1338,115.0776 M53.1338,118.0776 C53.9628,118.0776 54.6338,118.7486 54.6338,119.5776 L54.6338,131.8126 C54.6338,132.6416 53.9628,133.3126 53.1338,133.3126 L4.4998,133.3126 C3.6718,133.3126 2.9998,132.6416 2.9998,131.8126 L2.9998,119.5776 C2.9998,118.7486 3.6718,118.0776 4.4998,118.0776 L53.1338,118.0776" id="Fill-39" fill="#0099E6"></path>
                <path d="M49.9688,125.6957 C49.9688,126.9297 48.9678,127.9307 47.7328,127.9307 C46.4978,127.9307 45.4968,126.9297 45.4968,125.6957 C45.4968,124.4607 46.4978,123.4597 47.7328,123.4597 C48.9678,123.4597 49.9688,124.4607 49.9688,125.6957" id="Fill-40" fill="#0099E6"></path>
                <path d="M43.0059,125.6957 C43.0059,126.9297 42.0049,127.9307 40.7709,127.9307 C39.5359,127.9307 38.5349,126.9297 38.5349,125.6957 C38.5349,124.4607 39.5359,123.4597 40.7709,123.4597 C42.0049,123.4597 43.0059,124.4607 43.0059,125.6957" id="Fill-41" fill="#0099E6"></path>
            </g>
        </g>
    </g>
</svg>